HIERARCHY
ROOT hip
{
	OFFSET 0.000000 0.000000 0.000000 
	CHANNELS 6 Xposition Yposition Zposition Xrotation Zrotation Yrotation
	JOINT abdomen
	{
		OFFSET 0.000000 3.402643 0.000000 
		CHANNELS 3 Xrotation Zrotation Yrotation
		JOINT chest
		{
			OFFSET 0.000000 8.438565 -0.680529 
			CHANNELS 3 Xrotation Zrotation Yrotation
			JOINT neck
			{
				OFFSET 0.000000 10.207942 -0.272212 
				CHANNELS 3 Xrotation Zrotation Yrotation
				JOINT head
				{
					OFFSET 0.000000 3.130431 0.000000 
					CHANNELS 3 Xrotation Zrotation Yrotation
					End Site
					{
						OFFSET 0.000000 3.130435 0.000000 
					}
				}
			}
			JOINT lCollar
			{
				OFFSET 3.470700 6.669187 -0.816635 
				CHANNELS 3 Yrotation Zrotation Xrotation
				JOINT lShldr
				{
					OFFSET 3.198488 0.000000 0.000000 
					CHANNELS 3 Zrotation Yrotation Xrotation
					JOINT lForeArm
					{
						OFFSET 10.139888 0.000000 0.000000 
						CHANNELS 3 Yrotation Zrotation Xrotation
						JOINT lHand
						{
							OFFSET 8.370511 0.000000 0.000000 
							CHANNELS 3 Zrotation Yrotation Xrotation
							End Site
							{
								OFFSET 4.083176 0.000000 0.000000 
							}
						}
					}
				}
			}
			JOINT rCollar
			{
				OFFSET -3.470700 6.669187 -0.816635 
				CHANNELS 3 Yrotation Zrotation Xrotation
				JOINT rShldr
				{
					OFFSET -3.198488 0.000000 0.000000 
					CHANNELS 3 Zrotation Yrotation Xrotation
					JOINT rForeArm
					{
						OFFSET -10.139888 0.000000 0.000000 
						CHANNELS 3 Yrotation Zrotation Xrotation
						JOINT rHand
						{
							OFFSET -8.370511 0.000000 0.000000 
							CHANNELS 3 Zrotation Yrotation Xrotation
							End Site
							{
								OFFSET -4.083176 0.000000 0.000000 
							}
						}
					}
				}
			}
		}
	}
	JOINT lThigh
	{
		OFFSET 5.308129 -1.633274 1.361059 
		CHANNELS 3 Xrotation Zrotation Yrotation
		JOINT lShin
		{
			OFFSET -2.041588 -20.007561 0.000000 
			CHANNELS 3 Xrotation Zrotation Yrotation
			JOINT lFoot
			{
				OFFSET 0.000000 -19.190928 -1.224953 
				CHANNELS 3 Xrotation Yrotation Zrotation
				End Site
				{
					OFFSET 0.000000 -2.449906 4.627600 
				}
			}
		}
	}
	JOINT rThigh
	{
		OFFSET -5.308129 -1.633274 1.361059 
		CHANNELS 3 Xrotation Zrotation Yrotation
		JOINT rShin
		{
			OFFSET 2.041588 -20.007561 0.000000 
			CHANNELS 3 Xrotation Zrotation Yrotation
			JOINT rFoot
			{
				OFFSET 0.000000 -19.190928 -1.224953 
				CHANNELS 3 Xrotation Yrotation Zrotation
				End Site
				{
					OFFSET 0.000000 -2.449906 4.627600 
				}
			}
		}
	}
}
MOTION
Frames: 10
Frame Time: 0.033333
53.550423 53.810101 -46.968418 3.798896 -0.341046 3.092531 21.004881 -0.220037 -0.712132 -20.839844 0.000000 0.000000 10.019193 2.840444 -2.332992 -2.520832 -1.255077 0.218355 -4.754609 -0.109184 -0.002653 -80.446793 -7.914460 37.828976 -7.375802 0.393398 13.836090 4.617145 -23.184139 -0.343650 4.754609 0.109184 -0.002672 80.347931 2.286893 -12.902198 3.150899 -0.793648 52.729248 -6.571018 12.418553 -0.438138 1.892584 7.641427 3.430567 -5.514262 -3.853465 4.460612 -0.059377 -0.071544 1.247303 3.238065 -3.755904 -4.964672 -5.416328 3.269561 -12.954021 -1.400760 -0.077145 -1.069159 
53.390999 53.779125 -46.891239 3.759780 -0.155914 2.860821 20.975628 -0.247476 -0.722401 -20.839844 0.000000 0.000000 18.948118 2.981735 -2.385547 -2.520832 -1.255077 0.218355 -4.754609 -0.109184 -0.002653 -79.329201 -9.132288 39.823433 -9.187539 0.405846 15.349718 5.673099 -22.827518 -0.514196 4.754609 0.109184 -0.002672 79.403809 3.161295 -12.775162 3.142967 -0.790113 52.485050 -6.306420 12.623167 -0.421219 2.086780 7.637877 3.636986 -5.517696 -3.845638 4.499870 -0.082080 -0.075859 1.245746 3.378034 -3.739793 -4.879037 -5.421256 3.277750 -12.749960 -1.685382 -0.078553 -1.165448 
53.222450 53.738010 -46.807468 3.574226 0.116960 2.497560 20.985544 -0.290866 -0.718215 -20.839844 0.000000 0.000000 26.984497 2.978178 -2.162190 -2.520832 -1.255077 0.218355 -4.754609 -0.109184 -0.002653 -77.721375 -10.354158 40.179928 -10.787001 0.439150 17.493898 6.693704 -22.489992 -0.675048 4.754609 0.109184 -0.002672 78.495811 4.053960 -13.023389 3.152650 -0.794975 52.944084 -6.625037 12.555842 -0.454385 2.496610 7.522576 4.237513 -5.511175 -3.859791 4.197238 -0.034211 -0.077955 1.411916 3.648746 -3.815794 -4.768336 -5.423127 3.297832 -12.458225 -1.965629 -0.057288 -1.442093 
53.034615 53.694340 -46.732853 3.427795 0.341185 1.983385 21.073542 -0.306636 -0.704228 -20.839844 0.000000 0.000000 32.536503 2.786934 -1.527915 -2.520832 -1.255077 0.218355 -4.754609 -0.109184 -0.002653 -75.885414 -11.178513 39.093929 -12.296214 0.458348 18.891550 7.755527 -22.162378 -0.844556 4.754609 0.109184 -0.002672 77.926048 4.841078 -13.041675 3.152809 -0.795096 52.963615 -7.504795 13.037951 -0.557872 2.880782 7.480393 4.814147 -5.519073 -3.875367 4.062224 0.006303 -0.061341 1.428496 3.808208 -3.828543 -4.280829 -5.426816 3.309082 -12.478547 -2.094422 -0.019876 -1.827454 
52.809700 53.657803 -46.674953 3.427890 0.545897 1.399977 21.190832 -0.322293 -0.690529 -20.839844 0.000000 0.000000 35.586796 2.353605 -0.741145 -2.520832 -1.255077 0.218355 -4.754609 -0.109184 -0.002653 -74.245651 -11.239775 37.248886 -13.816186 0.443071 18.123447 8.736784 -22.039295 -0.994066 4.754609 0.109184 -0.002672 77.813690 5.419588 -12.690245 3.139594 -0.787504 52.074917 -8.254884 14.028716 -0.685658 2.644189 7.584355 4.824590 -4.623862 -3.841640 4.551793 -0.676359 -0.060653 1.002446 3.798031 -3.788623 -3.942264 -5.422254 3.317202 -12.234750 -2.067974 0.001910 -2.228702 
52.549751 53.628353 -46.631832 3.574686 0.925930 0.858773 21.298464 -0.368738 -0.678293 -20.839844 0.000000 0.000000 37.002979 1.733904 -0.050102 -2.520832 -1.255077 0.218355 -4.754609 -0.109184 -0.002653 -72.940056 -10.670960 35.140640 -15.241702 0.419776 15.642570 9.512536 -22.130508 -1.130569 4.754609 0.109184 -0.002672 77.981461 5.695254 -12.100277 3.121741 -0.775969 50.639244 -8.493194 15.125441 -0.769493 2.342668 7.586556 3.996652 -4.080832 -3.776305 5.885967 -1.387461 -0.028509 0.502933 3.637803 -3.833016 -4.120205 -5.436453 3.347883 -11.543944 -2.058213 0.035338 -2.698982 
52.264442 53.583675 -46.592709 3.838996 1.373865 0.238874 21.386696 -0.425627 -0.638614 -20.839844 0.000000 0.000000 37.447323 0.954207 0.669511 -2.520832 -1.255077 0.218355 -4.754609 -0.109184 -0.002653 -71.753784 -9.688258 33.171715 -16.463305 0.354005 12.208895 9.731894 -22.336693 -1.175853 4.754609 0.109184 -0.002672 78.469650 5.586627 -10.915429 3.096162 -0.770177 49.057110 -8.392279 16.220846 -0.815866 1.882193 7.492836 2.649087 -3.621970 -3.678962 7.664790 -1.703318 -0.011403 0.405127 3.343765 -3.977099 -3.927823 -5.444682 3.368001 -11.116072 -2.208421 0.076622 -3.157140 
51.978096 53.489750 -46.572445 4.191269 1.684938 -0.452480 21.465153 -0.450968 -0.544644 -20.839844 0.000000 0.000000 37.226280 0.076529 1.406432 -2.520832 -1.255077 0.218355 -4.754609 -0.109184 -0.002653 -70.660515 -8.459277 31.715103 -17.488972 0.279427 8.542965 9.664828 -22.757023 -1.195446 4.754609 0.109184 -0.002672 79.362022 5.229152 -9.241304 3.077879 -0.757217 47.621456 -8.145882 17.149405 -0.837684 1.219705 7.524879 1.500742 -3.207494 -3.578555 9.535366 -0.459901 -0.053753 0.858042 2.905051 -4.007585 -3.197357 -5.444444 3.366894 -11.135527 -2.495894 0.100523 -3.403065 
51.712593 53.346584 -46.605465 4.640969 1.800721 -0.927830 21.533567 -0.398074 -0.409080 -20.839844 0.000000 0.000000 36.538902 -0.703925 1.967697 -2.520832 -1.255077 0.218355 -4.754609 -0.109184 -0.002653 -69.552689 -7.103213 30.290482 -18.765621 0.190724 5.759724 9.695271 -23.470795 -1.239269 4.754609 0.109184 -0.002672 80.529755 4.798946 -7.600542 3.063164 -0.747117 46.635014 -7.778914 17.949900 -0.821139 -1.385633 7.628133 1.136744 0.185660 -3.238156 10.541039 2.745211 -0.021089 1.027620 2.362421 -3.865901 -3.007168 -5.447236 3.387462 -10.814536 -2.802428 0.101628 -3.131759 
51.477028 53.169918 -46.691738 5.198286 1.935372 -1.063965 21.602018 -0.387189 -0.300409 -20.839844 0.000000 0.000000 35.625038 -1.294312 2.435323 -2.520832 -1.255077 0.218355 -4.754609 -0.109184 -0.002653 -68.370682 -5.700425 28.166862 -20.889923 0.078591 4.822364 9.914427 -23.971249 -1.356307 4.754609 0.109184 -0.002672 81.642769 4.377876 -6.000454 3.062764 -0.746740 46.586178 -7.506999 18.555223 -0.811667 -12.281487 8.034691 1.246342 18.932049 -2.952219 9.123395 2.797440 0.213327 -0.080236 -2.945925 -4.018290 -3.481749 4.256310 3.396502 -9.618672 -7.991941 -0.010885 -1.528490 
